# xmcd
# Track frame offsets:
# 150
# 12395
# 26632
# 41615
# 56132
# 71262
# 86385
# 101447
# 116722
# 132027
# 146747
# 159817
# 172737
# 187647
# 202377
# 215982
# 231655
# 244050
# 256970
# 270802
#
# Disc length: 3790 seconds
# Revision: 0
# Processed by: cddbd v1.5PL3 Copyright (c) Steve Scherf et al.
# Submitted via: VisiTrax 2.9.7.197 - For more info visit www.synapsa.com
#
DISCID=150ecc14
DTITLE=Rainey, Gertrude "Ma" - Ma Rainey - The Paramounts Chronologically - 1
DTITLE=924-1925 Volume Two
DYEAR=1989
DGENRE=Blues
TTITLE0=Shave 'Em Dry Blues
TTITLE1=Farewell, Daddy Blues
TTITLE2=Booze And Blues
TTITLE3=Toad Frog Blues
TTITLE4=Jealous Hearted Blues
TTITLE5=See See Rider Blues
TTITLE6=Jelly Bean Blues
TTITLE7=Countin' The Blues
TTITLE8=Countin' The Blues
TTITLE9=Cell Bound Blues
TTITLE10=Army Camp Harmony Blues
TTITLE11=Army Camp Harmony Blues
TTITLE12=Explaining The Blues
TTITLE13=Explaining The Blues
TTITLE14=Louisiana Hoo Doo Blues
TTITLE15=Goodbye, Daddy Blues
TTITLE16=Stormy Sea Blues
TTITLE17=Rough And Tumble Blues
TTITLE18=Night Time Blues
TTITLE19=Night Time Blues
EXTD=Black Swan, HCD-12002
EXTT0=
EXTT1=
EXTT2=
EXTT3=
EXTT4=
EXTT5=
EXTT6=
EXTT7=
EXTT8=
EXTT9=
EXTT10=
EXTT11=
EXTT12=
EXTT13=
EXTT14=
EXTT15=
EXTT16=
EXTT17=
EXTT18=
EXTT19=
PLAYORDER=
